<?xml version="1.0" encoding="UTF-8"?>
<svg width="100" height="100" viewBox="0 0 100 100" fill="none" xmlns="http://www.w3.org/2000/svg">
  <defs>
    <linearGradient id="pythonGradient" x1="0%" y1="0%" x2="100%" y2="100%">
      <stop offset="0%" style="stop-color:#3776ab"/>
      <stop offset="100%" style="stop-color:#ffd43b"/>
    </linearGradient>
  </defs>
  <circle cx="50" cy="50" r="45" fill="url(#pythonGradient)"/>
  <path d="M30 25 Q30 20 35 20 L50 20 Q55 20 55 25 L55 40 L45 40 L45 50 L70 50 Q75 50 75 55 L75 70 Q75 75 70 75 L55 75 Q50 75 50 70 L50 55 L60 55 L60 45 L35 45 Q30 45 30 40 Z" fill="white"/>
  <circle cx="40" cy="30" r="3" fill="#3776ab"/>
  <circle cx="60" cy="65" r="3" fill="#ffd43b"/>
</svg>