<?xml version="1.0" encoding="UTF-8"?>
<svg width="724" height="561" xmlns="http://www.w3.org/2000/svg" viewBox="0 0 724 561">
 <defs>
  <clipPath id="clipPath18">
   <path d="M 0,841.8898 H 1190.5511 V 0 H 0 Z"/>
  </clipPath>
 </defs>
 <g id="g10" transform="matrix(0.60828025,0,0,-0.60828025,0,512.08775)">
  <g id="g12">
   <g id="g14" clip-path="url(#clipPath18)">
    <g id="g20" transform="translate(72.8071,651.5072)">
     <path d="m 0,0 c -7.896,11.62 -23.498,18.733 -43.768,18.733 -33.089,0 -51.822,-23.402 -51.822,-64.843 0,-42.632 19.825,-65.939 53.103,-65.939 18.636,0 33.184,6.018 41.175,16.447 l 31.903,-35.447 c -15.836,-20.174 -43.767,-32.093 -76.382,-32.093 -65.654,0 -106.906,38.22 -106.906,117.032 0,77.622 40.392,116.937 104.435,116.937 33.659,0 63.183,-13.091 80.771,-35.447 L 0,0 Z" style="fill:#1e63b5;fill-opacity:1;fill-rule:nonzero;stroke:none" id="path22"/>
    </g>
    <g id="g24" transform="translate(311.5596,573.8882)">
     <path d="m 0,0 c 0,-41.252 -29.524,-67.41 -76.001,-67.41 -46.572,0 -76.096,26.158 -76.096,67.41 0,41.158 29.524,67.316 76.096,67.316 C -29.524,67.316 0,41.158 0,0 m -119.194,0 c 0,-25.967 16.447,-35.542 43.193,-35.542 26.652,0 43.099,9.575 43.099,35.542 0,25.872 -16.447,35.352 -43.099,35.352 -26.746,0 -43.193,-9.48 -43.193,-35.352" style="fill:#1e63b5;fill-opacity:1;fill-rule:nonzero;stroke:none" id="path26"/>
    </g>
    <g id="g28" transform="translate(409.5747,506.4782)">
     <path d="m 0,0 v 127.847 h 32.998 V 95.485 c 0,-27.032 16.257,-43.004 42.441,-43.004 25.019,0 37.699,14.996 37.699,41.157 v 34.209 h 32.998 V 91.644 C 146.136,61.641 131.14,38.599 98.811,38.599 79.461,38.599 62.919,48.079 51.763,64.052 V 41.063 H 18.67 V 0 Z" style="fill:#1e63b5;fill-opacity:1;fill-rule:nonzero;stroke:none" id="path30"/>
    </g>
    <g id="g32" transform="translate(635.7764,506.4782)">
     <path d="m 0,0 v 41.063 h 33.089 v 86.784 H 0 v 31.998 h 96.075 V 127.847 H 66.177 V 41.063 H 96.075 V 9.065 H 33.089 V 0 Z" style="fill:#1e63b5;fill-opacity:1;fill-rule:nonzero;stroke:none" id="path34"/>
    </g>
    <g id="g36" transform="translate(238.8618,506.4782)">
     <path d="m 0,0 v 127.847 h 32.998 v -36.532 h 35.447 l 25.113,36.532 h 38.22 L 105.571,88.831 C 117.111,83.004 122.464,71.274 122.464,55.491 122.464,24.258 105.761,9.065 70.704,9.065 H 0 Z m 32.998,31.998 h 31.048 c 16.258,0 23.688,5.163 23.688,18.159 0,13.186 -7.43,18.349 -23.688,18.349 H 32.998 V 31.998 Z" style="fill:#1e63b5;fill-opacity:1;fill-rule:nonzero;stroke:none" id="path38"/>
    </g>
    <g id="g40" transform="translate(156.8169,295.2622)">
     <path d="m 0,0 c 0,78.527 63.658,142.186 142.185,142.186 78.527,0 142.186,-63.659 142.186,-142.186 0,-78.527 -63.659,-142.186 -142.186,-142.186 C 63.658,-142.186 0,-78.527 0,0" style="fill:#8dc63f;fill-opacity:1;fill-rule:nonzero;stroke:none" id="path42"/>
    </g>
    <g id="g44" transform="translate(299.0019,153.0762)">
     <path d="M 0,0 C 78.527,0 142.186,63.659 142.186,142.186 H 0 V 0 Z" style="fill:#6cb33f;fill-opacity:1;fill-rule:nonzero;stroke:none" id="path46"/>
    </g>
    <g id="g48" transform="translate(299.0019,295.2622)">
     <path d="M 0,0 H 142.186 C 142.186,78.527 78.527,142.186 0,142.186 V 0 Z" style="fill:#1e63b5;fill-opacity:1;fill-rule:nonzero;stroke:none" id="path50"/>
    </g>
   </g>
  </g>
 </g>
</svg>